<svg width="144" height="41" viewBox="0 0 144 41" fill="none" xmlns="http://www.w3.org/2000/svg">
<g clip-path="url(#clip0_4145_295)">
<path fill-rule="evenodd" clip-rule="evenodd" d="M0 7.25383H2.4741V10.5955C3.34156 9.36409 4.22705 8.46084 5.14276 7.89068C6.39796 7.15088 7.72023 6.78052 9.10283 6.78052C10.0428 6.78052 10.9282 6.96246 11.7713 7.33293C12.6145 7.69617 13.2994 8.18798 13.8334 8.79435C14.3669 9.40682 14.8276 10.2797 15.2219 11.4202C16.0466 9.90393 17.0835 8.75162 18.3209 7.96315C19.5642 7.17483 20.8985 6.78052 22.3296 6.78052C23.6641 6.78052 24.8467 7.12055 25.8653 7.79367C26.8903 8.46678 27.6484 9.40682 28.1455 10.6133C28.6426 11.8203 28.8917 13.6274 28.8917 16.0415V26.5754H26.3445V16.0354C26.3445 13.9609 26.1988 12.5422 25.9015 11.7657C25.6042 10.9897 25.1012 10.3648 24.3854 9.89211C23.6699 9.4188 22.8209 9.18215 21.8261 9.18215C20.6255 9.18215 19.522 9.5401 18.5272 10.2494C17.5265 10.9594 16.7987 11.9054 16.338 13.088C15.8771 14.2706 15.6464 16.2478 15.6464 19.0127V26.5754H13.1723V16.6902C13.1723 14.3616 13.0265 12.7789 12.7352 11.9416C12.4444 11.1051 11.9408 10.4379 11.2195 9.93425C10.4918 9.43062 9.63662 9.18215 8.64198 9.18215C7.48967 9.18215 6.4163 9.52812 5.41562 10.2191C4.41488 10.9106 3.67523 11.8447 3.19604 13.0149C2.71669 14.1857 2.4741 15.9808 2.4741 18.3943V26.5754H0V7.25383Z" fill="#2FA291"/>
<path fill-rule="evenodd" clip-rule="evenodd" d="M48.3194 20.1706L50.4179 21.2744C49.7267 22.6146 48.9321 23.7003 48.0281 24.5251C47.1247 25.344 46.1115 25.9748 44.9838 26.4056C43.8495 26.8362 42.5754 27.0486 41.1502 27.0486C37.9841 27.0486 35.5157 26.0174 33.7324 23.9552C31.9496 21.8928 31.0576 19.5638 31.0576 16.9681C31.0576 14.5237 31.8158 12.3403 33.3263 10.4297C35.2367 7.99746 37.8023 6.77856 41.0109 6.77856C44.3161 6.77856 46.9608 8.02805 48.9321 10.5208C50.3333 12.2797 51.049 14.4752 51.0729 17.1138H35.6149V14.9663H48.3437C48.01 13.6383 47.5248 12.583 46.8878 11.7884C46.2452 10.9937 45.402 10.3571 44.3528 9.87197C43.3036 9.38658 42.1998 9.14415 41.047 9.14415C39.1364 9.14415 37.4988 9.75068 36.1283 10.9696C35.4902 11.5343 34.9548 12.2748 34.5171 13.1925C33.6895 14.9316 33.4056 17.0398 33.8102 18.9272C34.1189 20.3618 34.7717 21.589 35.7645 22.6087C37.1593 24.0398 38.8821 24.756 40.9257 24.756C41.9145 24.756 42.8788 24.5862 43.8129 24.2461C44.7469 23.9067 45.5417 23.4579 46.1967 22.894C46.8518 22.3296 47.5613 21.4262 48.3194 20.1706Z" fill="#2FA291"/>
<path fill-rule="evenodd" clip-rule="evenodd" d="M73.254 0.999023V26.5754H70.779V18.6341C70.779 15.9766 70.6054 13.3475 68.7166 11.4243C67.2476 9.9283 65.4414 9.18032 63.2945 9.18032C61.9119 9.18032 60.6319 9.52003 59.4675 10.1995C58.2965 10.8725 57.3687 11.825 56.6776 13.0501C55.986 14.2753 55.6405 15.573 55.6405 16.9436C55.6405 18.2962 55.986 19.5943 56.6837 20.8317C57.3812 22.0689 58.3151 23.0332 59.4914 23.7188C60.6685 24.4101 61.9299 24.756 63.2766 24.756C64.6287 24.756 65.9208 24.416 67.1336 23.7309C67.9826 23.2538 68.6926 22.6618 69.2673 21.9518V24.7947C68.6405 25.3242 67.9765 25.7604 67.2734 26.1022C65.9813 26.7332 64.5622 27.0487 63.0278 27.0487C60.2982 27.0487 57.9631 26.06 56.0286 24.0824C54.0936 22.0992 53.1294 19.6974 53.1294 16.859C53.1294 14.0872 54.106 11.7099 56.0586 9.73818C58.0056 7.76723 60.3528 6.77863 63.1003 6.77863C64.6833 6.77863 66.1152 7.11214 67.4007 7.77905C68.6806 8.44655 69.8086 9.45334 70.779 10.8059V0.999023H73.254Z" fill="#2FA291"/>
<path fill-rule="evenodd" clip-rule="evenodd" d="M75.3379 0.999023V26.5754H77.8129V18.6341C77.8129 15.9766 77.9865 13.3475 79.8753 11.4243C81.3442 9.9283 83.1503 9.18032 85.2973 9.18032C86.68 9.18032 87.96 9.52003 89.1244 10.1995C90.2952 10.8725 91.2232 11.825 91.9143 13.0501C92.6059 14.2753 92.9514 15.573 92.9514 16.9436C92.9514 18.2962 92.6059 19.5943 91.9083 20.8317C91.2108 22.0689 90.2768 23.0332 89.1005 23.7188C87.9234 24.4101 86.6618 24.756 85.3153 24.756C83.9632 24.756 82.6709 24.416 81.4581 23.7309C80.6093 23.2538 79.8993 22.6618 79.3245 21.9518V24.7947C79.9512 25.3242 80.6154 25.7604 81.3185 26.1022C82.6106 26.7332 84.0297 27.0487 85.5641 27.0487C88.2937 27.0487 90.6288 26.06 92.5633 24.0824C94.4983 22.0992 95.4625 19.6974 95.4625 16.859C95.4625 14.0872 94.4858 11.7099 92.5333 9.73818C90.5863 7.76723 88.2389 6.77863 85.4916 6.77863C83.9086 6.77863 82.4767 7.11214 81.1912 7.77905C79.9112 8.44655 78.7833 9.45334 77.8129 10.8059V0.999023H75.3379Z" fill="#003882"/>
<path fill-rule="evenodd" clip-rule="evenodd" d="M127.1 7.21802L134.011 16.9137L127.124 26.5756H130.164L135.53 19.0457L140.897 26.5756H143.936L137.05 16.9137L143.96 7.21802H140.921L135.53 14.7817L130.139 7.21802H127.1Z" fill="#003882"/>
<path d="M122.939 22.4119L123.201 22.2569V23.4537L111.174 30.5591V29.3624L122.939 22.4119ZM122.939 20.6438L123.201 20.4889V21.6857L111.174 28.7911V27.5943L122.939 20.6438ZM122.939 18.8759L123.201 18.7208V19.9177L111.174 27.023V25.8263L122.939 18.8759ZM122.939 17.1078L123.201 16.9528V18.1496L111.174 25.2551V24.0582L122.939 17.1078ZM122.939 15.3395L123.201 15.1846V16.3813L111.174 23.4868V22.2899L122.939 15.3395ZM122.939 13.5715L123.201 13.4164V14.6134L111.174 21.7187V20.522L122.939 13.5715ZM122.939 11.8034L123.201 11.6485V12.8452L111.174 19.9507V18.7538L122.939 11.8034ZM122.939 10.0355L123.201 9.88037V11.0772L111.174 18.1826V16.9859L122.939 10.0355Z" fill="#2FA291"/>
<path d="M111.757 0.343991L125.495 8.46143V25.332L111.175 33.7935L96.8535 25.332V8.46218L111.174 0L111.757 0.343991ZM123.202 9.76519L111.175 2.65877L99.1466 9.76578V24.0281L111.175 31.1346L123.202 24.0281V9.76519Z" fill="#003882"/>
<path d="M122.416 9.30091L110.367 16.4196L109.917 16.1538L121.966 9.03516L122.416 9.30091ZM112.34 3.34754L100.291 10.4672L99.8413 10.2014L111.891 3.08179L112.34 3.34754ZM113.78 4.19821L101.73 11.3175L101.28 11.0517L113.33 3.9323L113.78 4.19821ZM115.219 5.04835L103.17 12.1681L102.72 11.9022L114.769 4.7826L115.219 5.04835ZM116.659 5.89896L104.609 13.0183L104.159 12.7524L116.209 5.63322L116.659 5.89896ZM118.098 6.74948L106.049 13.8685L105.599 13.6027L117.648 6.48373L118.098 6.74948ZM119.537 7.6001L107.488 14.7188L107.038 14.453L119.088 7.33419L119.537 7.6001ZM120.977 8.45045L108.928 15.5693L108.478 15.3035L120.527 8.18454L120.977 8.45045Z" fill="#2FA291"/>
<path d="M37.3525 33.2092H36.7241V38.1159H37.3525V33.2092Z" fill="#003882"/>
<path fill-rule="evenodd" clip-rule="evenodd" d="M37.0369 31.1946C37.1797 31.1946 37.3019 31.2458 37.4033 31.3489C37.5048 31.4503 37.5555 31.5749 37.5555 31.7182C37.5555 31.8598 37.5048 31.9836 37.4033 32.0851C37.3019 32.1882 37.1797 32.239 37.0369 32.239C36.8948 32.239 36.775 32.1882 36.6731 32.0851C36.5716 31.9836 36.5205 31.8598 36.5205 31.7182C36.5205 31.5749 36.5716 31.4503 36.6731 31.3489C36.775 31.2458 36.8948 31.1946 37.0369 31.1946Z" fill="#003882"/>
<path fill-rule="evenodd" clip-rule="evenodd" d="M33.7964 33.2091H34.4433V33.9271C34.6358 33.6434 34.8391 33.4339 35.0535 33.2955C35.2672 33.1583 35.491 33.0889 35.7214 33.0889C35.8973 33.0889 36.0836 33.1445 36.282 33.2553L35.9525 33.7855C35.8201 33.7279 35.7093 33.6989 35.6183 33.6989C35.4078 33.6989 35.204 33.7855 35.0083 33.9575C34.8127 34.1296 34.6634 34.3999 34.5603 34.7636C34.482 35.0421 34.4433 35.6074 34.4433 36.4574V38.1158H33.7964V33.2091Z" fill="#003882"/>
<path fill-rule="evenodd" clip-rule="evenodd" d="M32.1755 36.4898L32.7079 36.7699C32.5322 37.1103 32.3305 37.3857 32.1008 37.595C31.8719 37.8033 31.6141 37.9636 31.3279 38.0732C31.0397 38.1823 30.7163 38.2363 30.3542 38.2363C29.5502 38.2363 28.924 37.9745 28.4706 37.4505C28.0183 36.9269 27.792 36.3356 27.792 35.6768C27.792 35.0559 27.9839 34.5018 28.3679 34.0163C28.8524 33.3986 29.5043 33.0889 30.3193 33.0889C31.1583 33.0889 31.83 33.4059 32.3305 34.0391C32.6864 34.486 32.8683 35.0436 32.8739 35.7134H28.9492V35.1682H32.1811C32.0964 34.8311 31.9733 34.5627 31.8118 34.3618C31.6483 34.1596 31.4343 33.9982 31.1672 33.8743C30.901 33.7513 30.6206 33.6901 30.3278 33.6901C29.8433 33.6901 29.4276 33.8438 29.0789 34.1531C28.9175 34.2964 28.7815 34.4848 28.6699 34.7174C28.4597 35.1593 28.3882 35.6947 28.4904 36.1741C28.5688 36.5381 28.7348 36.8499 28.9869 37.1088C29.3412 37.4721 29.7787 37.6539 30.2978 37.6539C30.5491 37.6539 30.793 37.6112 31.0304 37.5244C31.2674 37.4384 31.4696 37.3247 31.636 37.181C31.802 37.0378 31.9822 36.8084 32.1755 36.4898Z" fill="#003882"/>
<path fill-rule="evenodd" clip-rule="evenodd" d="M19.3643 33.2091H19.9925V34.0577C20.2129 33.7453 20.4377 33.5155 20.6703 33.3706C20.9894 33.1832 21.325 33.0889 21.6757 33.0889C21.9148 33.0889 22.14 33.1352 22.3535 33.2294C22.5679 33.3216 22.7416 33.4465 22.8772 33.6004C23.0131 33.7555 23.1296 33.9774 23.2302 34.2673C23.4397 33.8816 23.7031 33.5898 24.0172 33.3893C24.3327 33.1892 24.6715 33.0889 25.0347 33.0889C25.3737 33.0889 25.6737 33.1754 25.9329 33.3458C26.1933 33.5171 26.3857 33.7555 26.5122 34.0623C26.6385 34.3691 26.7014 34.8277 26.7014 35.4407V38.1158H26.0544V35.4394C26.0544 34.9126 26.0179 34.5521 25.9419 34.3553C25.8669 34.1576 25.7391 33.9994 25.5569 33.8792C25.3757 33.7586 25.1602 33.6989 24.9069 33.6989C24.6025 33.6989 24.3221 33.7898 24.0696 33.9701C23.8156 34.1499 23.6305 34.3907 23.5135 34.691C23.3962 34.9913 23.3382 35.493 23.3382 36.1956V38.1158H22.7095V35.6054C22.7095 35.014 22.6722 34.6121 22.5986 34.3999C22.5248 34.1872 22.3973 34.0176 22.2134 33.8901C22.0288 33.7622 21.8117 33.6989 21.5593 33.6989C21.2663 33.6989 20.9938 33.7867 20.7397 33.962C20.4857 34.1381 20.2977 34.3756 20.1756 34.6719C20.0546 34.969 19.9925 35.4252 19.9925 36.0381V38.1158H19.3643V33.2091Z" fill="#003882"/>
<path fill-rule="evenodd" clip-rule="evenodd" d="M17.9396 33.2091V38.1158H17.3113V36.0998C17.3113 35.4252 17.2675 34.7571 16.7873 34.2688C16.4146 33.8886 15.9565 33.6989 15.4109 33.6989C15.0599 33.6989 14.7343 33.7855 14.4388 33.9575C14.1421 34.1289 13.9064 34.3703 13.7305 34.6816C13.5548 34.993 13.4675 35.3221 13.4675 35.6703C13.4675 36.0134 13.5548 36.3433 13.7327 36.6574C13.9091 36.9717 14.1462 37.2168 14.4453 37.3908C14.7444 37.5662 15.0648 37.6539 15.406 37.6539C15.7499 37.6539 16.0775 37.5682 16.3858 37.3937C16.6014 37.2727 16.7816 37.1226 16.9273 36.9424V37.6637C16.7686 37.798 16.6002 37.9091 16.4211 37.996C16.0932 38.1559 15.7329 38.2363 15.3431 38.2363C14.6498 38.2363 14.0574 37.9851 13.5658 37.483C13.0747 36.9794 12.8296 36.3696 12.8296 35.6488C12.8296 34.9446 13.0779 34.3411 13.5735 33.8407C14.0678 33.3397 14.6641 33.0889 15.3619 33.0889C15.7636 33.0889 16.1273 33.1733 16.4533 33.3426C16.7788 33.5128 17.0653 33.7683 17.3113 34.1117V33.2091H17.9396Z" fill="#003882"/>
<path fill-rule="evenodd" clip-rule="evenodd" d="M44.9697 31.3149H45.598V34.0948C45.8537 33.7587 46.1371 33.5066 46.4435 33.3398C46.7515 33.1727 47.0839 33.089 47.4428 33.089C47.8109 33.089 48.1376 33.1816 48.4231 33.3682C48.7072 33.5542 48.9181 33.8054 49.0541 34.1179C49.1897 34.4321 49.257 34.9232 49.257 35.5937V38.1163H48.6292V35.7781C48.6292 35.215 48.606 34.8375 48.5613 34.6476C48.4831 34.3242 48.3398 34.0806 48.1332 33.9163C47.9265 33.7531 47.6555 33.6711 47.3198 33.6711C46.9361 33.6711 46.5928 33.7977 46.2897 34.0506C45.9861 34.3014 45.786 34.6139 45.6889 34.9865C45.6289 35.2268 45.598 35.6709 45.598 36.3191V38.1163H44.9697V31.3149Z" fill="#2FA291"/>
<path fill-rule="evenodd" clip-rule="evenodd" d="M55.4934 33.2091V38.1158H54.865V36.0998C54.865 35.4252 54.8212 34.7571 54.3416 34.2688C53.9685 33.8886 53.5094 33.6989 52.9647 33.6989C52.6136 33.6989 52.2886 33.7855 51.9922 33.9575C51.6951 34.1289 51.4598 34.3703 51.2844 34.6816C51.109 34.993 51.0214 35.3221 51.0214 35.6703C51.0214 36.0134 51.109 36.3433 51.2856 36.6574C51.463 36.9717 51.7004 37.2168 51.9992 37.3908C52.2979 37.5662 52.6182 37.6539 52.9599 37.6539C53.3033 37.6539 53.6316 37.5682 53.9397 37.3937C54.1548 37.2727 54.3353 37.1226 54.4812 36.9424V37.6637C54.3216 37.798 54.1536 37.9091 53.975 37.996C53.6466 38.1559 53.2863 38.2363 52.897 38.2363C52.2042 38.2363 51.6108 37.9851 51.1201 37.483C50.6284 36.9794 50.3833 36.3696 50.3833 35.6488C50.3833 34.9446 50.6313 34.3411 51.1273 33.8407C51.6217 33.3397 52.2175 33.0889 52.9152 33.0889C53.3171 33.0889 53.6807 33.1733 54.007 33.3426C54.3317 33.5128 54.6187 33.7683 54.865 34.1117V33.2091H55.4934Z" fill="#2FA291"/>
<path fill-rule="evenodd" clip-rule="evenodd" d="M56.6777 33.2091H57.3248V33.9271C57.5172 33.6434 57.7205 33.4339 57.9344 33.2955C58.1487 33.1583 58.3723 33.0889 58.6032 33.0889C58.7786 33.0889 58.9645 33.1445 59.1639 33.2553L58.8343 33.7855C58.7019 33.7279 58.5903 33.6989 58.4998 33.6989C58.2888 33.6989 58.085 33.7855 57.8901 33.9575C57.6945 34.13 57.5448 34.3999 57.4424 34.7636C57.3633 35.0421 57.3248 35.6074 57.3248 36.4574V38.1162H56.6777V33.2091Z" fill="#2FA291"/>
<path fill-rule="evenodd" clip-rule="evenodd" d="M59.6982 33.2091H60.3262V34.0577C60.5464 33.7453 60.7714 33.5155 61.0035 33.371C61.3226 33.1832 61.6585 33.0889 62.0094 33.0889C62.2483 33.0889 62.4733 33.1352 62.6867 33.2294C62.9014 33.3216 63.0751 33.4465 63.2107 33.6004C63.3464 33.7557 63.4632 33.9778 63.5639 34.2675C63.7729 33.8825 64.0367 33.5898 64.3508 33.3893C64.6662 33.1892 65.0047 33.0889 65.3684 33.0889C65.7073 33.0889 66.0077 33.1754 66.2666 33.3458C66.5263 33.5171 66.7192 33.7557 66.8458 34.0626C66.972 34.3691 67.0349 34.8277 67.0349 35.4407V38.1162H66.388V35.4394C66.388 34.9126 66.351 34.5521 66.276 34.3549C66.2001 34.1576 66.0722 33.9994 65.8903 33.8792C65.7093 33.7586 65.4935 33.6989 65.2409 33.6989C64.9357 33.6989 64.6553 33.7898 64.4028 33.9701C64.1487 34.1499 63.9641 34.3907 63.847 34.691C63.7299 34.9913 63.6714 35.493 63.6714 36.1956V38.1162H63.0431V35.6054C63.0431 35.014 63.0062 34.6121 62.9326 34.3999C62.858 34.1872 62.7305 34.0176 62.5471 33.8901C62.3625 33.7622 62.1457 33.6989 61.8923 33.6989C61.5993 33.6989 61.3275 33.7867 61.0734 33.962C60.8193 34.1381 60.6313 34.3756 60.5096 34.6719C60.3878 34.9693 60.3262 35.4252 60.3262 36.0386V38.1162H59.6982V33.2091Z" fill="#2FA291"/>
<path fill-rule="evenodd" clip-rule="evenodd" d="M73.254 33.2091V38.1158H72.6253V36.0998C72.6253 35.4252 72.5815 34.7571 72.1021 34.2688C71.7291 33.8886 71.2705 33.6989 70.725 33.6989C70.3739 33.6989 70.0492 33.7855 69.7532 33.9575C69.4562 34.1289 69.2204 34.3703 69.0447 34.6816C68.8693 34.993 68.7812 35.3221 68.7812 35.6703C68.7812 36.0134 68.8693 36.3433 69.0462 36.6574C69.224 36.9717 69.4607 37.2168 69.7598 37.3908C70.0581 37.5662 70.3788 37.6539 70.7202 37.6539C71.0639 37.6539 71.3915 37.5682 71.7003 37.3937C71.9154 37.2727 72.0961 37.1226 72.2413 36.9424V37.6637C72.0826 37.798 71.9139 37.9091 71.7356 37.996C71.4077 38.1559 71.0469 38.2363 70.6568 38.2363C69.9643 38.2363 69.3719 37.9851 68.8799 37.483C68.3892 36.9794 68.144 36.3696 68.144 35.6488C68.144 34.9446 68.3919 34.3411 68.8875 33.8407C69.3823 33.3397 69.9781 33.0889 70.6759 33.0889C71.0777 33.0889 71.4413 33.1733 71.768 33.3426C72.0928 33.5128 72.3793 33.7683 72.6253 34.1117V33.2091H73.254Z" fill="#2FA291"/>
<path fill-rule="evenodd" clip-rule="evenodd" d="M38.6753 33.2091H39.304V34.1117C39.5537 33.7683 39.8399 33.5128 40.1645 33.3426C40.4896 33.1733 40.8521 33.0889 41.2519 33.0889C41.95 33.0889 42.5458 33.3397 43.0423 33.8407C43.5379 34.3411 43.7857 34.9446 43.7857 35.6488C43.7857 36.3696 43.5394 36.9794 43.0479 37.483C42.5567 37.9851 41.9638 38.2363 41.2689 38.2363C40.88 38.2363 40.5209 38.1543 40.1925 37.9928C40.0147 37.9043 39.8472 37.7932 39.688 37.6579V36.9417C39.8341 37.1217 40.0159 37.2727 40.231 37.3937C40.5419 37.5682 40.8703 37.6539 41.2137 37.6539C41.5527 37.6539 41.8713 37.5662 42.1705 37.3908C42.4688 37.2168 42.7062 36.9717 42.8836 36.6574C43.0605 36.3433 43.1481 36.0134 43.1481 35.6703C43.1481 35.3221 43.0605 34.993 42.8848 34.6816C42.7094 34.3703 42.4736 34.1289 42.1761 33.9575C41.8806 33.7855 41.5556 33.6989 41.206 33.6989C40.6598 33.6989 40.2007 33.8893 39.8281 34.2688C39.3487 34.7571 39.304 35.4252 39.304 36.0998V41H38.6753V33.2091Z" fill="#2FA291"/>
<path d="M0.6099 35.9747C0.607012 36.48 0.778901 36.9224 1.12562 37.3022C1.47993 37.6922 1.90746 37.8881 2.4097 37.8881C2.95227 37.8881 3.40221 37.6892 3.75802 37.2931C4.10035 36.9105 4.27224 36.4441 4.27513 35.8955C4.27818 35.3679 4.0973 34.9165 3.73101 34.5427C3.37237 34.178 2.93879 33.9926 2.43062 33.9867C1.90591 33.9806 1.46646 34.1824 1.11364 34.5905C0.78334 34.9761 0.615943 35.4366 0.6099 35.9747ZM0.6099 31.9583V34.3275C0.864096 34.027 1.14215 33.7998 1.44549 33.6474C1.749 33.4934 2.10181 33.4156 2.50078 33.4126C3.16753 33.4066 3.73561 33.6474 4.20951 34.1331C4.68175 34.619 4.91942 35.2154 4.92247 35.9224C4.92835 36.6369 4.69218 37.2393 4.21085 37.7282C3.73101 38.2169 3.12721 38.4621 2.40072 38.4621C2.03903 38.4621 1.71006 38.3934 1.41565 38.2557C1.14065 38.1272 0.87153 37.912 0.6099 37.6085V38.335H0V31.9583H0.6099Z" fill="#003882"/>
<path d="M5.02881 33.5188H5.74043L7.22625 37.4127L8.78683 33.5188H9.50439L6.90338 39.8866H6.24422L6.88397 38.3215L5.02881 33.5188Z" fill="#003882"/>
</g>
<defs>
<clipPath id="clip0_4145_295">
<rect width="143.96" height="41" fill="white"/>
</clipPath>
</defs>
</svg>
